# xmcd
#
# Track frame offsets: 
#        183
#        20863
#        42000
#        65670
#        85585
#        103430
#        117760
#        134708
#        153375
#        167560
#        192223
#        208038
#        235863
#
# Disc length: 3195 seconds
#
# Revision: 0
# Processed by: cddbd v1.5.2PL0 Copyright (c) Steve Scherf et al.
# Submitted via: ExactAudioCopy v1.0b1
#
DISCID=b50c790d
DTITLE=Dead End Street - Zzzengng
DYEAR=1994
DGENRE=Rock
TTITLE0=Big City Lights
TTITLE1=Time
TTITLE2=It Was Summer Again
TTITLE3=Just Be Free
TTITLE4=Where Is The Land
TTITLE5=Flowing Waters
TTITLE6=Love Can Find A Way
TTITLE7=Love Is My Guide
TTITLE8=Wild Dreams
TTITLE9=Mr. Blues
TTITLE10=Please, Don't Touch
TTITLE11=No Return
TTITLE12=Zzzengng
EXTD=
EXTT0=
EXTT1=
EXTT2=
EXTT3=
EXTT4=
EXTT5=
EXTT6=
EXTT7=
EXTT8=
EXTT9=
EXTT10=
EXTT11=
EXTT12=
PLAYORDER=
